<svg xmlns="http://www.w3.org/2000/svg" width="28" height="28" viewBox="0 0 28 28">
  <g id="icon" transform="translate(-1878 -545)">
    <rect id="area" width="28" height="28" transform="translate(1878 545)" fill="none"/>
    <g id="그룹_18952" data-name="그룹 18952" transform="translate(284.291 189.913)">
      <path id="패스_16442" data-name="패스 16442" d="M184.163,72.564l2.889,2.872,1.841-1,.574-.316h0a2.159,2.159,0,0,1,2.706.514,2.11,2.11,0,0,1,.356.615l.141.382a2.14,2.14,0,0,1,.072,1.278l4.331-4.346.827-.83a4.567,4.567,0,0,0-.529-6.894,3.385,3.385,0,0,0-.287-.193c-.1-.06-.193-.115-.287-.167h0a4.54,4.54,0,0,0-.609-.264c-.123-.043-.25-.08-.376-.112s-.172-.04-.258-.058h-.034l-.267-.04c-.106,0-.21-.023-.316-.029h-.52a1.017,1.017,0,0,0-.261.023,1.583,1.583,0,0,0-.256.037l-.258.052c-.092.02-.184.046-.287.075a2.441,2.441,0,0,0-.233.078c-.078.029-.164.063-.244.095s-.161.072-.241.112l-.06.029c-.095.049-.19.1-.287.161a3.63,3.63,0,0,0-.307.207h0a4.564,4.564,0,0,0-.534.425l-.83.836-.827-.836a4.561,4.561,0,0,0-.529-.454,3.389,3.389,0,0,0-.287-.193c-.1-.06-.193-.115-.287-.166h0a4.49,4.49,0,0,0-.609-.264c-.123-.043-.25-.08-.376-.112s-.172-.04-.258-.057h-.034l-.267-.04c-.106,0-.21-.023-.316-.029h-.52a1.016,1.016,0,0,0-.261.023,1.584,1.584,0,0,0-.256.037l-.258.052c-.092.02-.184.046-.287.075l-.233.078c-.083.029-.164.063-.244.095s-.161.072-.241.112l-.06.029c-.095.049-.19.1-.287.161a3.63,3.63,0,0,0-.307.207h0a4.565,4.565,0,0,0-.534,6.911Z" transform="translate(1417.093 294.044)" fill="#fff"/>
      <path id="패스_16443" data-name="패스 16443" d="M156.07,283.743l-.96-1.123a1.008,1.008,0,0,0-1.313-.192l-5.374,3.484-4.837-1.186.994-1.436,1.183-1.723h0a1,1,0,0,0,.112-.919l-.141-.379h0a1.081,1.081,0,0,0-.1-.2.974.974,0,0,0-.494-.393,1.027,1.027,0,0,0-.347-.063,1,1,0,0,0-.485.126l-.287.158-1.83,1.014-1.853,1.02a1,1,0,0,0-.3.256l-2.74,3.478h-2.085a1,1,0,0,0-1.005,1l-.032,3.059a1.006,1.006,0,0,0,1.017,1.005h14.85a.994.994,0,0,0,.712-.287l5.268-5.334a1.008,1.008,0,0,0,.052-1.361Z" transform="translate(1462.469 89.448)" fill="#fff"/>
    </g>
  </g>
</svg>
