<svg xmlns="http://www.w3.org/2000/svg" width="28" height="28" viewBox="0 0 28 28">
  <g id="icon" transform="translate(-1879 -545)">
    <rect id="area" width="28" height="28" transform="translate(1879 545)" fill="none"/>
    <path id="빼기_1" data-name="빼기 1" d="M13.48,20.071c-.085,0-8.454-.007-10.533-.6A3.488,3.488,0,0,1,.564,16.938,39.856,39.856,0,0,1,0,10.036a39.866,39.866,0,0,1,.564-6.9A3.488,3.488,0,0,1,2.946.6C5.025.007,13.4,0,13.48,0s8.455.007,10.533.6A3.491,3.491,0,0,1,26.4,3.134a39.875,39.875,0,0,1,.563,6.9,39.865,39.865,0,0,1-.563,6.9,3.491,3.491,0,0,1-2.384,2.535C21.935,20.064,13.564,20.071,13.48,20.071Zm-2.7-14.337v8.6l7-4.3-7-4.3Z" transform="translate(1879.52 548.964)" fill="#fff" stroke="rgba(0,0,0,0)" stroke-miterlimit="10" stroke-width="1"/>
  </g>
</svg>
