<svg xmlns="http://www.w3.org/2000/svg" width="28" height="28" viewBox="0 0 28 28">
  <g id="icon" transform="translate(-1879 -545)">
    <rect id="area" width="28" height="28" transform="translate(1879 545)" fill="none"/>
    <path id="빼기_11" data-name="빼기 11" d="M-7352.179,3586.935h-19.729v-12.741h2.26v5.96h15.208v-5.96h2.26v12.74Zm-12.554-5.267a2.309,2.309,0,0,0-1,.232.469.469,0,0,0-.257.347.469.469,0,0,0,.109.417.789.789,0,0,1,.166.288l.01.024c.009.023.02.048.031.075a1.572,1.572,0,0,0,.653.713,1.723,1.723,0,0,0,.606.107c.071,0,.134.006.2.013a2.119,2.119,0,0,1,.6.209l.161.073a3.5,3.5,0,0,1,.535,1.345.5.5,0,0,0,.481.411.452.452,0,0,0,.072-.006.473.473,0,0,0,.305-.207.475.475,0,0,0,.078-.363,4.853,4.853,0,0,0-.2-.772l.02-.029a1.566,1.566,0,0,1,.367-.424,4.728,4.728,0,0,0,2.347-.772,3.79,3.79,0,0,0,.885-1,.574.574,0,0,0-.1-.794,2.854,2.854,0,0,0-.915-.52,2.531,2.531,0,0,0-.684-.117,1.451,1.451,0,0,0-.571.117,3.186,3.186,0,0,0-1.575,2.362,2.357,2.357,0,0,0-.267.237l-.024-.032-.005-.007c-.052-.069-.106-.141-.165-.2a1.759,1.759,0,0,0-.705-1.4A2.285,2.285,0,0,0-7364.733,3581.668Zm12.965-7.886a2.683,2.683,0,0,1-2.569-1.936,2.685,2.685,0,0,1-2.569,1.936,2.684,2.684,0,0,1-2.569-1.936,2.681,2.681,0,0,1-2.569,1.936,2.684,2.684,0,0,1-2.569-1.936,2.685,2.685,0,0,1-2.569,1.936,2.684,2.684,0,0,1-2.569-1.936,2.681,2.681,0,0,1-2.569,1.936,2.675,2.675,0,0,1-2.671-2.673l.017-.017H-7375l3.3-4.094h18.909l3.708,4.094h-.026c.011.011.019.016.019.017A2.676,2.676,0,0,1-7351.768,3573.783Z" transform="translate(9255 -3017.968)" fill="#fff"/>
  </g>
</svg>
