<svg xmlns="http://www.w3.org/2000/svg" xmlns:xlink="http://www.w3.org/1999/xlink" width="40" height="40" viewBox="0 0 40 40">
  <defs>
    <linearGradient id="linear-gradient" x2="1" y2="1" gradientUnits="objectBoundingBox">
      <stop offset="0" stop-color="#0086e1"/>
      <stop offset="1" stop-color="#3daf00"/>
    </linearGradient>
    <clipPath id="clip-path">
      <circle id="타원_2677" data-name="타원 2677" cx="20" cy="20" r="20" fill="url(#linear-gradient)"/>
    </clipPath>
  </defs>
  <g id="img" transform="translate(-1827 -742)">
    <circle id="타원_2676" data-name="타원 2676" cx="20" cy="20" r="20" transform="translate(1827 742)" fill="#4d5cdb"/>
    <g id="마스크_그룹_34" data-name="마스크 그룹 34" transform="translate(1827 742)" clip-path="url(#clip-path)">
      <g id="그룹_19706" data-name="그룹 19706" transform="translate(-12.419 -3.226)">
        <g id="그룹_19742" data-name="그룹 19742" transform="translate(0)">
          <g id="그룹_19706-2" data-name="그룹 19706" transform="translate(0 29.414)">
            <path id="패스_18618" data-name="패스 18618" d="M1245.938,259.815c-4.436-5.437-11.851-7.3-18.732-8.844-2.873-.645-5.439.221-8.329.4-2.89-.176-5.456-1.042-8.328-.4-6.882,1.545-14.3,3.408-18.733,8.844-3.932,4.819-4.642,11.43-4.706,17.627a113.707,113.707,0,0,0,2.138,22.87s6.328-5.53,9.1-8.03l20.534.2,20.036-.278c2.768,2.5,6.685,5.953,9.652,8.66a119.131,119.131,0,0,0,2.08-23.419C1250.58,271.245,1249.871,264.635,1245.938,259.815Z" transform="translate(-1187.104 -250.736)" fill="#aca5a7"/>
          </g>
          <g id="그룹_19707" data-name="그룹 19707" transform="translate(31.696 34.367)">
            <path id="패스_18619" data-name="패스 18619" d="M1337.042,273.794q.147,19.33-.275,38.658Z" transform="translate(-1336.289 -273.79)" fill="#4f85d8"/>
            <path id="패스_18620" data-name="패스 18620" d="M1335.5,312.448l-.955-.02c.281-12.81.373-25.812.275-38.645l.955-.007C1335.874,286.617,1335.781,299.629,1335.5,312.448Z" transform="translate(-1334.545 -273.776)" fill="#4f85d8"/>
          </g>
          <g id="그룹_19708" data-name="그룹 19708" transform="translate(26.414 21.742)">
            <path id="패스_18621" data-name="패스 18621" d="M1321.228,215.047H1311c-.058.756-1.021,8.408-1.021,8.408a23.747,23.747,0,0,1,6.023,5v.089c.012-.016.025-.03.037-.045.012.015.025.029.037.045v-.089c2.016-2.6,3.513-3.035,6.084-4.993C1321.716,223.8,1321.229,215.9,1321.228,215.047Z" transform="translate(-1309.974 -215.047)" fill="#ffc1a8"/>
          </g>
          <g id="그룹_19709" data-name="그룹 19709" transform="translate(15.994 0)">
            <path id="패스_18622" data-name="패스 18622" d="M1293.156,121.309a9.265,9.265,0,0,0-1.324-1.926,17.048,17.048,0,0,0-8.03-4.65,21.586,21.586,0,0,0-13,.375c-3.953,1.391-8.593,4.293-9.226,8.817-.006.046-.012.093-.018.139a8.763,8.763,0,0,0,.536,4.031q.125.34.272.671c1.862,4.223,6.449,6.543,10.769,7.477a24.322,24.322,0,0,0,11.2-.078C1290.476,134.52,1296.51,127.835,1293.156,121.309Z" transform="translate(-1261.505 -113.909)" fill="#ffb268"/>
          </g>
          <g id="그룹_19710" data-name="그룹 19710" transform="translate(15.994 0.926)">
            <path id="패스_18623" data-name="패스 18623" d="M1293.156,125.615a9.247,9.247,0,0,0-1.324-1.927,17.055,17.055,0,0,0-8.03-4.65,21.594,21.594,0,0,0-13,.375c-3.953,1.392-8.593,4.293-9.226,8.817-.006.046-.012.092-.018.139a8.759,8.759,0,0,0,.536,4.031q.125.341.272.672c1.862,4.223,6.449,6.543,10.769,7.477a24.328,24.328,0,0,0,11.2-.078C1290.476,138.826,1296.51,132.14,1293.156,125.615Z" transform="translate(-1261.505 -118.214)" fill="#ff9c3c"/>
          </g>
          <g id="그룹_19711" data-name="그룹 19711" transform="translate(24.46 6.178)">
            <path id="패스_18624" data-name="패스 18624" d="M1316.667,147.2a5.893,5.893,0,0,0-.66-1.186,8.316,8.316,0,0,0-4-2.861,11.079,11.079,0,0,0-7.287.242,6.356,6.356,0,0,0-3.8,5.414c0,.028-.006.057-.009.085a6.559,6.559,0,0,0,.268,2.481c.041.14.087.277.135.413a7.567,7.567,0,0,0,5.369,4.6,9.9,9.9,0,0,0,5.585-.049C1315.33,155.329,1318.339,151.215,1316.667,147.2Z" transform="translate(-1300.885 -142.65)" fill="#ff8610"/>
          </g>
          <g id="그룹_19712" data-name="그룹 19712" transform="translate(23.473 15.103)">
            <path id="패스_18625" data-name="패스 18625" d="M1299.8,187.7a2.232,2.232,0,0,1-3.5-1.952,1.834,1.834,0,0,1,.436-1.124,1.342,1.342,0,0,1,1.092-.458,2.356,2.356,0,0,1,1.322.8C1299.81,185.606,1299.657,186.791,1299.8,187.7Z" transform="translate(-1296.294 -184.165)" fill="#ffc1a8"/>
          </g>
          <g id="그룹_19713" data-name="그룹 19713" transform="translate(24.411 16.038)">
            <path id="패스_18626" data-name="패스 18626" d="M1300.85,188.515a1.49,1.49,0,0,1,1.392,1.532.758.758,0,0,1-.4.8.516.516,0,0,1-.731-.282c-.09-.248.3-.365.391-.119.034.1.2.028.243-.011a.441.441,0,0,0,.09-.282,1.413,1.413,0,0,0-.106-.557.92.92,0,0,0-.871-.674C1300.6,188.918,1300.587,188.51,1300.85,188.515Z" transform="translate(-1300.658 -188.515)" fill="#e57f4a"/>
          </g>
          <g id="그룹_19714" data-name="그룹 19714" transform="translate(38.155 15.269)">
            <path id="패스_18627" data-name="패스 18627" d="M1364.594,188.474a2.232,2.232,0,0,0,3.5-1.953,1.832,1.832,0,0,0-.436-1.124,1.342,1.342,0,0,0-1.092-.458,2.355,2.355,0,0,0-1.321.8C1364.581,186.376,1364.734,187.562,1364.594,188.474Z" transform="translate(-1364.594 -184.935)" fill="#ffc1a8"/>
          </g>
          <g id="그룹_19715" data-name="그룹 19715" transform="translate(39.133 16.204)">
            <path id="패스_18628" data-name="패스 18628" d="M1370.538,189.286a1.49,1.49,0,0,0-1.392,1.533.758.758,0,0,0,.4.8.515.515,0,0,0,.73-.282c.091-.248-.3-.364-.391-.118-.035.1-.2.028-.244-.011a.447.447,0,0,1-.089-.282,1.412,1.412,0,0,1,.106-.557.919.919,0,0,1,.871-.673C1370.79,189.689,1370.8,189.281,1370.538,189.286Z" transform="translate(-1369.144 -189.286)" fill="#e57f4a"/>
          </g>
          <g id="그룹_19716" data-name="그룹 19716" transform="translate(25.622 8.853)">
            <path id="패스_18629" data-name="패스 18629" d="M1317.691,156.533c-2.223-1.95-6.889-1.9-9.054,0-3.31,2.9-2.853,9.563-.285,12.769,1.938,2.421,6.52,2.8,8.873.785a7.2,7.2,0,0,0,1.915-2.839,12.016,12.016,0,0,0,.421-7.458A6.61,6.61,0,0,0,1317.691,156.533Z" transform="translate(-1306.29 -155.089)" fill="#ffc1a8"/>
          </g>
          <g id="그룹_19719" data-name="그룹 19719" transform="translate(28.29 15.852)">
            <g id="그룹_19717" data-name="그룹 19717">
              <path id="패스_18630" data-name="패스 18630" d="M1319.928,188.083a.567.567,0,0,0-.663-.425c-.46.079-.637.828-.532,1.3a.652.652,0,0,0,.572.562C1319.884,189.529,1320.124,188.64,1319.928,188.083Z" transform="translate(-1318.704 -187.647)" fill="#534347"/>
            </g>
            <g id="그룹_19718" data-name="그룹 19718" transform="translate(7.045 0.027)">
              <path id="패스_18631" data-name="패스 18631" d="M1352.7,188.209a.568.568,0,0,0-.662-.425c-.461.08-.638.829-.532,1.3a.652.652,0,0,0,.571.562C1352.659,189.655,1352.9,188.765,1352.7,188.209Z" transform="translate(-1351.478 -187.773)" fill="#534347"/>
            </g>
          </g>
          <g id="그룹_19721" data-name="그룹 19721" transform="translate(31.163 15.216)">
            <g id="그룹_19720" data-name="그룹 19720">
              <path id="패스_18632" data-name="패스 18632" d="M1333.078,184.859l-.771,1.926c-.151.378-.37.758-.131,1.144a1.219,1.219,0,0,0,1.851.112c.239-.228-.124-.59-.363-.362s-.759.352-1,.042c-.2-.25.087-.672.181-.907l.728-1.82C1333.694,184.689,1333.2,184.557,1333.078,184.859Z" transform="translate(-1332.069 -184.688)" fill="#e57f4a"/>
            </g>
          </g>
          <g id="그룹_19723" data-name="그룹 19723" transform="translate(30.868 20.033)">
            <g id="그룹_19722" data-name="그룹 19722">
              <path id="패스_18633" data-name="패스 18633" d="M1330.763,207.542a2.047,2.047,0,0,0,3.039.049c.231-.236-.132-.6-.362-.362a1.535,1.535,0,0,1-2.314-.049C1330.9,206.935,1330.542,207.3,1330.763,207.542Z" transform="translate(-1330.694 -207.099)" fill="#e57f4a"/>
            </g>
          </g>
          <g id="그룹_19724" data-name="그룹 19724" transform="translate(35.131 14.676) rotate(-30)">
            <path id="패스_18634" data-name="패스 18634" d="M1.817.684A.743.743,0,0,0,1.476.361.249.249,0,0,0,1.418.3,1.644,1.644,0,0,0,.248.015.26.26,0,0,0,.077.456,2,2,0,0,0,1.6,1.072.259.259,0,0,0,1.817.684Z" transform="translate(0 0)" fill="#534347"/>
          </g>
          <g id="그룹_19725" data-name="그룹 19725" transform="translate(28.451 13.661) rotate(30)">
            <path id="패스_18635" data-name="패스 18635" d="M1.775.367a.746.746,0,0,1-.311.353.266.266,0,0,1-.053.066,1.644,1.644,0,0,1-1.14.385A.26.26,0,0,1,.062.747,2,2,0,0,1,1.528,0,.258.258,0,0,1,1.775.367Z" transform="translate(0 0)" fill="#534347"/>
          </g>
          <g id="그룹_19727" data-name="그룹 19727" transform="translate(27.432 22.615)">
            <g id="그룹_19726" data-name="그룹 19726">
              <path id="패스_18636" data-name="패스 18636" d="M1314.779,219.555c2.2,2.548,7.349,2.976,9.653.275.212-.249-.148-.613-.363-.362-2.124,2.491-6.921,2.047-8.927-.275C1314.926,218.942,1314.564,219.306,1314.779,219.555Z" transform="translate(-1314.713 -219.109)" fill="#e57f4a"/>
            </g>
          </g>
          <g id="그룹_19728" data-name="그룹 19728" transform="translate(25.07 7.203)">
            <path id="패스_18637" data-name="패스 18637" d="M1304.067,155.763a10.244,10.244,0,0,0,4.07-4.957,1.242,1.242,0,1,0,2.063.406,1.3,1.3,0,1,0,2.39-.269,3.957,3.957,0,0,0,.571,1.321,1.375,1.375,0,0,0,1.245.589.849.849,0,0,0,.7-1.053,7.549,7.549,0,0,0,2.821,4.263,5.812,5.812,0,0,0-1.322-6.57,9.123,9.123,0,0,0-6.393-2.076,6.9,6.9,0,0,0-4.065,1.168,5.558,5.558,0,0,0-2.266,3.384A8.115,8.115,0,0,0,1304.067,155.763Z" transform="translate(-1303.722 -147.415)" fill="#534347"/>
          </g>
          <g id="그룹_19741" data-name="그룹 19741" transform="translate(15.995 12.965)">
            <g id="그룹_19730" data-name="그룹 19730" transform="translate(0 0)">
              <g id="그룹_19729" data-name="그룹 19729">
                <path id="패스_18638" data-name="패스 18638" d="M1261.513,174.435c.812,9.916,9.049,19.486,16.59,25.277.228.175.451-.213.226-.385-7.392-5.675-15.574-15.171-16.37-24.891C1261.936,174.151,1261.489,174.148,1261.513,174.435Z" transform="translate(-1261.512 -174.221)" fill="#ffd8b3"/>
              </g>
            </g>
            <g id="그룹_19732" data-name="그룹 19732" transform="translate(13.885 24.588)">
              <g id="그룹_19731" data-name="그룹 19731">
                <path id="패스_18639" data-name="패스 18639" d="M1328.493,288.613a.175.175,0,0,0-.1.15,5.678,5.678,0,0,1-.741,2.07c-.228.4-.746,1.276-.822.287a1.339,1.339,0,0,1,.255-.847,3.63,3.63,0,0,1,1.406-1.128.758.758,0,0,0,.264-.18.247.247,0,0,0,.021-.3c-.093-.107-.262-.057-.387.007a4.874,4.874,0,0,0-1.988,1.928,1.871,1.871,0,0,0-.3.945.819.819,0,0,0,.508.779.8.8,0,0,0,.717-.189,5.746,5.746,0,0,0,1.487-3.25A.249.249,0,0,0,1328.493,288.613Z" transform="translate(-1326.103 -288.598)" fill="#ffd8b3"/>
              </g>
            </g>
            <g id="그룹_19734" data-name="그룹 19734" transform="translate(16.485 25.742)">
              <g id="그룹_19733" data-name="그룹 19733">
                <path id="패스_18640" data-name="패스 18640" d="M1338.2,294.249q.538,2.909,1.037,5.825c.048.283.479.163.431-.119q-.5-2.915-1.037-5.825C1338.579,293.848,1338.148,293.967,1338.2,294.249Z" transform="translate(-1338.197 -293.969)" fill="#ffd8b3"/>
              </g>
            </g>
            <g id="그룹_19736" data-name="그룹 19736" transform="translate(16.096)">
              <g id="그룹_19735" data-name="그룹 19735">
                <path id="패스_18641" data-name="패스 18641" d="M1352.456,174.434c-.784,9.581-8.67,18.981-15.976,24.59-.225.173,0,.561.226.385,7.456-5.724,15.4-15.2,16.2-24.975C1352.926,174.148,1352.48,174.149,1352.456,174.434Z" transform="translate(-1336.386 -174.22)" fill="#ffd8b3"/>
              </g>
            </g>
            <g id="그룹_19738" data-name="그룹 19738" transform="translate(16.189 24.58)">
              <g id="그룹_19737" data-name="그룹 19737">
                <path id="패스_18642" data-name="패스 18642" d="M1336.933,288.978a4.384,4.384,0,0,1,1.2.836,4.275,4.275,0,0,1,.568.7.938.938,0,0,1,.053.962c-.368.429-.913-.856-1.026-1.091a5.438,5.438,0,0,1-.467-1.654c-.038-.289-.461-.166-.424.121.092.709,1.289,4.417,2.478,3.249.544-.534.043-1.4-.289-1.895a4.756,4.756,0,0,0-1.868-1.62C1336.9,288.461,1336.678,288.853,1336.933,288.978Z" transform="translate(-1336.821 -288.562)" fill="#ffd8b3"/>
              </g>
            </g>
            <g id="그룹_19740" data-name="그룹 19740" transform="translate(15.217 25.481)">
              <g id="그룹_19739" data-name="그룹 19739">
                <path id="패스_18643" data-name="패스 18643" d="M1333.248,292.913q-.493,2.918-.946,5.842c-.044.281.387.4.431.119q.453-2.924.946-5.841C1333.726,292.75,1333.3,292.629,1333.248,292.913Z" transform="translate(-1332.299 -292.751)" fill="#ffd8b3"/>
              </g>
            </g>
          </g>
        </g>
        <g id="그룹_19745" data-name="그룹 19745" transform="translate(14.59 30.688)">
          <g id="그룹_19743" data-name="그룹 19743" transform="translate(30.486 0.291)">
            <path id="패스_18644" data-name="패스 18644" d="M1396.789,258.017v28.805h4.932V259.629A46.378,46.378,0,0,0,1396.789,258.017Z" transform="translate(-1396.789 -258.017)" fill="#f5dfd3"/>
          </g>
          <g id="그룹_19744" data-name="그룹 19744" transform="translate(0 0)">
            <path id="패스_18645" data-name="패스 18645" d="M1259.906,256.661c-1.668.426-3.328.909-4.933,1.486v27.61h4.933Z" transform="translate(-1254.973 -256.661)" fill="#f5dfd3"/>
          </g>
        </g>
      </g>
    </g>
  </g>
</svg>
