<svg xmlns="http://www.w3.org/2000/svg" width="28" height="28.499" viewBox="0 0 28 28.499">
  <g id="icon" transform="translate(-1878 -544.5)">
    <rect id="area" width="28" height="28" transform="translate(1878 544.999)" fill="none"/>
    <g id="그룹_19677" data-name="그룹 19677" transform="translate(927.712 -162.291)">
      <path id="빼기_12" data-name="빼기 12" d="M17.822,27a.405.405,0,0,1-.249-.086L9.792,20.937a1.1,1.1,0,0,0-1.345,0L.665,26.914A.405.405,0,0,1,.416,27,.419.419,0,0,1,0,26.577V.761A.754.754,0,0,1,.747,0H17.492a.755.755,0,0,1,.748.76V26.577A.421.421,0,0,1,17.822,27ZM9.271,13.944a.069.069,0,0,1,.037.011l3.331,2.085a.07.07,0,0,0,.094-.018.071.071,0,0,0,.012-.063L11.788,12.4a.073.073,0,0,1,.021-.073l2.755-2.517a.073.073,0,0,0,.02-.078.071.071,0,0,0-.06-.049L11,9.339a.072.072,0,0,1-.058-.042L9.378,5.832a.07.07,0,0,0-.129,0L7.649,9.28a.073.073,0,0,1-.058.041l-3.524.31A.071.071,0,0,0,4,9.68a.072.072,0,0,0,.019.077L6.753,12.3a.075.075,0,0,1,.021.074l-.993,3.55a.072.072,0,0,0,.068.093.07.07,0,0,0,.037-.011l3.347-2.052A.072.072,0,0,1,9.271,13.944Z" transform="translate(955.288 707.289)" fill="#fff" stroke="rgba(0,0,0,0)" stroke-miterlimit="10" stroke-width="1"/>
    </g>
  </g>
</svg>
