<svg xmlns="http://www.w3.org/2000/svg" width="28" height="28" viewBox="0 0 28 28">
  <g id="icon" transform="translate(-1880 -549)">
    <rect id="area" width="28" height="28" transform="translate(1880 549)" fill="none"/>
    <path id="Icon_awesome-calculator" data-name="Icon awesome-calculator" d="M20.672,0H2.481A2.5,2.5,0,0,0,0,2.4V23.2a2.5,2.5,0,0,0,2.481,2.4H20.672a2.5,2.5,0,0,0,2.481-2.4V2.4A2.5,2.5,0,0,0,20.672,0ZM6.615,21.763a.7.7,0,0,1-.662.64H3.969a.7.7,0,0,1-.662-.64v-1.92a.7.7,0,0,1,.662-.64H5.954a.7.7,0,0,1,.662.64Zm0-6.4a.7.7,0,0,1-.662.64H3.969a.7.7,0,0,1-.662-.64v-1.92a.7.7,0,0,1,.662-.64H5.954a.7.7,0,0,1,.662.64Zm6.615,6.4a.7.7,0,0,1-.662.64H10.584a.7.7,0,0,1-.662-.64v-1.92a.7.7,0,0,1,.662-.64h1.985a.7.7,0,0,1,.662.64Zm0-6.4a.7.7,0,0,1-.662.64H10.584a.7.7,0,0,1-.662-.64v-1.92a.7.7,0,0,1,.662-.64h1.985a.7.7,0,0,1,.662.64Zm6.615,6.4a.7.7,0,0,1-.662.64H17.2a.7.7,0,0,1-.662-.64V13.442a.7.7,0,0,1,.662-.64h1.985a.7.7,0,0,1,.662.64Zm0-12.8a.7.7,0,0,1-.662.64H3.969a.7.7,0,0,1-.662-.64V3.841a.7.7,0,0,1,.662-.64H19.184a.7.7,0,0,1,.662.64Z" transform="translate(1882.423 550.198)" fill="#fff"/>
  </g>
</svg>
