<svg xmlns="http://www.w3.org/2000/svg" width="28" height="28" viewBox="0 0 28 28">
  <g id="icon" transform="translate(-1878 -545)">
    <rect id="area" width="28" height="28" transform="translate(1878 545)" fill="none"/>
    <path id="패스_1565" data-name="패스 1565" d="M99.252,187.09l5.865,0a.306.306,0,0,1,.22.093.313.313,0,0,1,.087.223c-.083,4.963-4.914,5.755-4.963,5.762a.306.306,0,0,1-.046,0h-6.2a.306.306,0,0,1-.226-.1.311.311,0,0,1-.08-.237C94.33,187.857,99.2,187.1,99.252,187.09Zm10.7,15.933h-2.443c-.472,2.637-2.293,8.024-9.289,8.024-9.264,0-9.455-9.447-9.455-9.447v-5.673a.309.309,0,0,1,.307-.311h20.881a3.7,3.7,0,0,1,0,7.406Zm-.086-5.523a1.8,1.8,0,1,0,1.777,1.8A1.787,1.787,0,0,0,109.863,197.5Z" transform="translate(1790.815 359.933)" fill="#fff"/>
  </g>
</svg>
