<svg width="14" height="14" viewBox="0 0 26 26" fill="none" xmlns="http://www.w3.org/2000/svg">
<circle cx="13" cy="13" r="13" fill="#1B3133"/>
<path d="M14.6654 15.5L11.332 18.8333L14.6654 22.1667" stroke="white" stroke-width="2"/>
<path d="M18.0505 10.0827C18.5625 10.9695 18.832 11.9754 18.832 12.9993C18.832 14.0233 18.5625 15.0292 18.0505 15.916C17.5385 16.8028 16.8021 17.5392 15.9154 18.0512C15.0286 18.5631 14.0227 18.8327 12.9987 18.8327" stroke="white" stroke-width="2" stroke-linecap="round"/>
<path d="M11.3346 10.5L14.668 7.16667L11.3346 3.83333" stroke="white" stroke-width="2"/>
<path d="M7.94949 15.9173C7.43751 15.0305 7.16797 14.0246 7.16797 13.0007C7.16797 11.9767 7.43751 10.9708 7.94949 10.084C8.46147 9.19721 9.19786 8.46082 10.0846 7.94884C10.9714 7.43685 11.9773 7.16732 13.0013 7.16732" stroke="white" stroke-width="2" stroke-linecap="round"/>
</svg>
